<svg xmlns="http://www.w3.org/2000/svg" viewBox="0 0 24 24"><g id="Soccer" fill="none" fill-rule="evenodd"><path d="M0 0h24v24H0z"></path><path fill="#547FFF" d="m10.804 9.482-5.318 2.341.898 5.795 5.697 1.051 2.319-5.277zM7.513 2.513l5.502 1.876 5.566.821 1.484-.79-4.273-2.626L10.804 1zM19.053 6.279l.558 5.089 1.876 5.204c.445-1.977.667-3.77.667-5.38 0-1.61-.322-2.906-.965-3.891L19.353 5.21l-.3 1.069z"></path><path d="m6.389 19.025.839-.84c1.215.244 2.461.424 3.676.587l.768.104c.863.687 1.875 1.28 2.941 1.734a8.955 8.955 0 0 1-8.224-1.585zM3.39 9.386a12.884 12.884 0 0 0 1.733 2.942l.106.782c.163 1.211.343 2.451.585 3.662l-.839.839A8.948 8.948 0 0 1 3.39 9.386zm3.829-4.998c1.295-.062 3.032.37 4.348 1.049-.492.938-.981 2.122-1.479 3.555-1.503.537-2.758 1.078-3.737 1.615a11.035 11.035 0 0 1-1.696-3.791 9.059 9.059 0 0 1 2.564-2.428zm10.23.466a57.852 57.852 0 0 0-3.323-.597l-.847-.133a10.353 10.353 0 0 0-2.215-1.075 8.942 8.942 0 0 1 6.385 1.805zm.377 5.706c-.824.45-1.921.914-3.248 1.383a51.69 51.69 0 0 0-2.521-2.522c.47-1.326.933-2.424 1.383-3.247l.381.06c1.115.172 2.263.348 3.356.589.24 1.092.418 2.239.588 3.354l.061.383zM7.738 16.262c-.217-1.113-.374-2.282-.526-3.418l-.055-.404c.887-.502 2.084-1.02 3.548-1.546a50.809 50.809 0 0 1 2.4 2.402c-.525 1.463-1.043 2.66-1.546 3.547l-.389-.053c-1.141-.153-2.315-.31-3.432-.528zm9.446 3.082a11.003 11.003 0 0 1-3.79-1.695c.537-.98 1.077-2.234 1.614-3.737 1.433-.498 2.617-.987 3.554-1.479.679 1.316 1.11 3.055 1.05 4.346a9.05 9.05 0 0 1-2.428 2.565zM21 12c0 .315-.017.625-.049.932a10.266 10.266 0 0 0-1.076-2.21l-.132-.85a58.62 58.62 0 0 0-.596-3.32A8.943 8.943 0 0 1 21 12zM12 1C5.934 1 1 5.934 1 12c0 6.065 4.934 11 11 11 6.065 0 11-4.935 11-11 0-6.066-4.935-11-11-11z" fill="#0D0E0F"></path></g></svg>