<svg xmlns="http://www.w3.org/2000/svg" viewBox="2.3323354721069336 2.3329999446868896 28.974700927734375 29.437000274658203"><g id="FlagFootball" stroke="none" stroke-width="1" fill="none" fill-rule="evenodd"><g transform="translate(1.000000, 1.000000)" fill-rule="nonzero"><path d="M23.295 22.994C13.14 33.147 3.266 28.007 3.266 28.007S-1.25 18.94 8.903 8.787C19.056-1.366 28.006 3.582 28.006 3.582s5.442 9.258-4.711 19.412 Z" fill="#E69845"></path><path d="M3.4 2.97h9.232L23.974 14.6l-4.505 4.552 M3.4 2.97h9.232L23.974 14.6l-4.505 4.552 Z" fill="#547FFF"></path><path d="m15.373 20.64 2.488-2.561 1.608 1.073 1.935-1.697 7.009 7.118-4.44 4.735 Z" fill="#547FFF"></path><path d="m24.007 27.54-6.873-6.873.833-.834.443.443c.26.261.601.39.942.39.338 0 .676-.126.936-.382l1.147-1.132 5.415 5.472-2.843 2.916zm-18.833.085c.61-1.658 2.033-4.857 4.973-8.698l.555.556a1.335 1.335 0 0 0 1.886 0c.52-.522.52-1.366 0-1.886l-2.914-2.913a1.332 1.332 0 0 0-1.886 0 1.332 1.332 0 0 0 0 1.885l.46.46c-1.953 2.512-3.314 4.784-4.24 6.616-.097-3.38.73-8.218 4.884-12.886l7.19 7.189-1.776 1.776a1.332 1.332 0 0 0 0 1.885l3.83 3.831c-5.468 3.259-10.66 2.69-12.962 2.185zM11.464 4l10.664 10.725-2.769 2.73L5.904 4h5.56zm12.143.02a39.676 39.676 0 0 0-5.195 3.185L16.5 5.283a18.128 18.128 0 0 1 7.108-1.263zm1.177 14.725-1.449-1.464 1.62-1.597a1.34 1.34 0 0 0 .397-.944 1.339 1.339 0 0 0-.388-.947L20.32 9.124c3.107-2.184 5.676-3.347 7.161-3.908.296 2.641.46 8.417-2.696 13.53zm1.912 1.934c5.25-7.895 3.256-17.112 3.164-17.516a1.33 1.33 0 0 0-.842-.956c-.303-.111-6.984-2.46-14.54 1.044l-1.515-1.524a1.333 1.333 0 0 0-.945-.394H2.686a1.334 1.334 0 0 0-.943 2.276l5.25 5.251C-1.539 18.307 2.061 28.553 2.223 29c.136.37.426.659.795.795.187.068 2.496.884 5.87.884 3.1 0 7.1-.716 11.174-3.312l3.013 3.013c.25.25.59.39.943.39h.008c.356-.002.697-.146.947-.402l4.7-4.819a1.334 1.334 0 0 0-.007-1.869l-2.97-3.001 Z" fill="#010202"></path></g></g></svg>