<svg xmlns="http://www.w3.org/2000/svg" viewBox="0.021067967638373375 0 21.97884178161621 21.97990608215332"><g transform="translate(1 1)"><path d="M5.998 10.392C3.184 13.014 3.1 15.07 5.28 17.017c2.18 1.948 2.536 2.74 5.72-.77-2.142-.387-2.86-.368-3.708-1.138-1.215-1.105-.86-3.039-1.294-4.717zM18.859 12.721c2.813-2.621 2.757-6.732.577-8.68-2.18-1.948-6.158-5.139-9.342-1.63 2.142.387 4.897 3.271 5.744 4.041 1.215 1.105 2.586 4.591 3.02 6.269z" fill="#D7FF38"></path><circle fill="#CED1E2" cx="14.1" cy="8.603" r="2.5"></circle><path d="M19.131 11.334c-.68-1.779-1.714-3.869-3.161-5.315-1.446-1.445-2.899-2.608-4.753-3.53.551-.315 1.253-.489 2.05-.489 1.678.001 3.44.761 4.712 2.034 2.366 2.366 2.554 5.846 1.152 7.3m-3.67 1.693c.546-.818.96-1.589 1.232-2.31.264.546.505 1.115.718 1.714-.608.243-1.268.419-1.95.596M7.83 17.178c-.806.04-1.531-.257-2.117-.843-.994-.995-1.097-2.412-.365-3.614.165.932.625 1.799 1.394 2.568.775.775 1.646 1.239 2.578 1.408-.467.282-.973.457-1.49.481M9.002 6.577c.23-.907.464-1.779.849-2.536.71.324 1.37.695 1.993 1.1-.87.26-1.819.742-2.842 1.436m3.446.869c.284-.283.66-.439 1.062-.439.298 0 .58.086.823.246.066.048.13.098.192.156.009.009.019.015.028.023.016.019.03.04.047.059a1.5 1.5 0 0 1-.03 2.082c-.566.567-1.556.566-2.122 0a1.508 1.508 0 0 1 0-2.127m-.539 6.867-.737.263c-1.164.415-2.123.192-3.015-.701-.892-.891-1.102-1.864-.664-3.063l.245-.668a23.126 23.126 0 0 1 2.291-1.859 3.482 3.482 0 0 0 3.481 3.728c.084 0 .165-.019.25-.025a22.545 22.545 0 0 1-1.85 2.325M13.266 0c-1.636 0-3.068.531-4.03 1.495-1.353 1.352-1.805 3.132-2.203 4.702-.321 1.268-.625 2.466-1.34 3.181l-1.2 1.202a.154.154 0 0 1-.014.012l-.029.029-.086.087c-1.106 1.171-1.584 2.624-1.468 4.02-.042.03-.089.047-.127.084L.293 17.29a1.001 1.001 0 0 0 1.416 1.414l1.874-1.875c.2.323.428.635.712.919.266.266.559.486.865.681l-1.865 1.864a1.001 1.001 0 0 0 1.416 1.414l2.476-2.477c.028-.028.04-.064.063-.094.15.014.296.045.45.045.073 0 .146-.002.22-.005 1.244-.057 2.45-.587 3.413-1.497l.099-.096.02-.021.009-.008 1.205-1.205c.717-.718 1.91-1.027 3.173-1.353 1.56-.405 3.332-.863 4.68-2.214 2.365-2.364 1.83-7.207-1.124-10.161C17.731.956 15.5.001 13.267 0z" fill="#0D0E0F"></path></g></svg>