<svg xmlns="http://www.w3.org/2000/svg" width="112" height="42" viewBox="0 0 112 42" fill="none">
<circle cx="1" cy="1" r="1" fill="#63D349"/>
<circle cx="1" cy="1" r="1" fill="#63D349"/>
<circle cx="11" cy="1" r="1" fill="#63D349"/>
<circle cx="11" cy="1" r="1" fill="#63D349"/>
<circle cx="21" cy="1" r="1" fill="#63D349"/>
<circle cx="21" cy="1" r="1" fill="#63D349"/>
<circle cx="31" cy="1" r="1" fill="#63D349"/>
<circle cx="31" cy="1" r="1" fill="#63D349"/>
<circle cx="41" cy="1" r="1" fill="#63D349"/>
<circle cx="41" cy="1" r="1" fill="#63D349"/>
<circle cx="51" cy="1" r="1" fill="#63D349"/>
<circle cx="51" cy="1" r="1" fill="#63D349"/>
<circle cx="61" cy="1" r="1" fill="#63D349"/>
<circle cx="61" cy="1" r="1" fill="#63D349"/>
<circle cx="71" cy="1" r="1" fill="#63D349"/>
<circle cx="71" cy="1" r="1" fill="#63D349"/>
<circle cx="81" cy="1" r="1" fill="#63D349"/>
<circle cx="81" cy="1" r="1" fill="#63D349"/>
<circle cx="91" cy="1" r="1" fill="#63D349"/>
<circle cx="91" cy="1" r="1" fill="#63D349"/>
<circle cx="101" cy="1" r="1" fill="#63D349"/>
<circle cx="101" cy="1" r="1" fill="#63D349"/>
<circle cx="111" cy="1" r="1" fill="#63D349"/>
<circle cx="111" cy="1" r="1" fill="#63D349"/>
<circle cx="1" cy="11" r="1" fill="#63D349"/>
<circle cx="1" cy="11" r="1" fill="#63D349"/>
<circle cx="11" cy="11" r="1" fill="#63D349"/>
<circle cx="11" cy="11" r="1" fill="#63D349"/>
<circle cx="21" cy="11" r="1" fill="#63D349"/>
<circle cx="21" cy="11" r="1" fill="#63D349"/>
<circle cx="31" cy="11" r="1" fill="#63D349"/>
<circle cx="31" cy="11" r="1" fill="#63D349"/>
<circle cx="41" cy="11" r="1" fill="#63D349"/>
<circle cx="41" cy="11" r="1" fill="#63D349"/>
<circle cx="51" cy="11" r="1" fill="#63D349"/>
<circle cx="51" cy="11" r="1" fill="#63D349"/>
<circle cx="61" cy="11" r="1" fill="#63D349"/>
<circle cx="61" cy="11" r="1" fill="#63D349"/>
<circle cx="71" cy="11" r="1" fill="#63D349"/>
<circle cx="71" cy="11" r="1" fill="#63D349"/>
<circle cx="81" cy="11" r="1" fill="#63D349"/>
<circle cx="81" cy="11" r="1" fill="#63D349"/>
<circle cx="91" cy="11" r="1" fill="#63D349"/>
<circle cx="91" cy="11" r="1" fill="#63D349"/>
<circle cx="101" cy="11" r="1" fill="#63D349"/>
<circle cx="101" cy="11" r="1" fill="#63D349"/>
<circle cx="111" cy="11" r="1" fill="#63D349"/>
<circle cx="111" cy="11" r="1" fill="#63D349"/>
<circle cx="1" cy="21" r="1" fill="#63D349"/>
<circle cx="1" cy="21" r="1" fill="#63D349"/>
<circle cx="11" cy="21" r="1" fill="#63D349"/>
<circle cx="11" cy="21" r="1" fill="#63D349"/>
<circle cx="21" cy="21" r="1" fill="#63D349"/>
<circle cx="21" cy="21" r="1" fill="#63D349"/>
<circle cx="31" cy="21" r="1" fill="#63D349"/>
<circle cx="31" cy="21" r="1" fill="#63D349"/>
<circle cx="41" cy="21" r="1" fill="#63D349"/>
<circle cx="41" cy="21" r="1" fill="#63D349"/>
<circle cx="51" cy="21" r="1" fill="#63D349"/>
<circle cx="51" cy="21" r="1" fill="#63D349"/>
<circle cx="61" cy="21" r="1" fill="#63D349"/>
<circle cx="61" cy="21" r="1" fill="#63D349"/>
<circle cx="71" cy="21" r="1" fill="#63D349"/>
<circle cx="71" cy="21" r="1" fill="#63D349"/>
<circle cx="81" cy="21" r="1" fill="#63D349"/>
<circle cx="81" cy="21" r="1" fill="#63D349"/>
<circle cx="91" cy="21" r="1" fill="#63D349"/>
<circle cx="91" cy="21" r="1" fill="#63D349"/>
<circle cx="101" cy="21" r="1" fill="#63D349"/>
<circle cx="101" cy="21" r="1" fill="#63D349"/>
<circle cx="111" cy="21" r="1" fill="#63D349"/>
<circle cx="111" cy="21" r="1" fill="#63D349"/>
<circle cx="1" cy="31" r="1" fill="#63D349"/>
<circle cx="1" cy="31" r="1" fill="#63D349"/>
<circle cx="11" cy="31" r="1" fill="#63D349"/>
<circle cx="11" cy="31" r="1" fill="#63D349"/>
<circle cx="21" cy="31" r="1" fill="#63D349"/>
<circle cx="21" cy="31" r="1" fill="#63D349"/>
<circle cx="31" cy="31" r="1" fill="#63D349"/>
<circle cx="31" cy="31" r="1" fill="#63D349"/>
<circle cx="41" cy="31" r="1" fill="#63D349"/>
<circle cx="41" cy="31" r="1" fill="#63D349"/>
<circle cx="51" cy="31" r="1" fill="#63D349"/>
<circle cx="51" cy="31" r="1" fill="#63D349"/>
<circle cx="61" cy="31" r="1" fill="#63D349"/>
<circle cx="61" cy="31" r="1" fill="#63D349"/>
<circle cx="71" cy="31" r="1" fill="#63D349"/>
<circle cx="71" cy="31" r="1" fill="#63D349"/>
<circle cx="81" cy="31" r="1" fill="#63D349"/>
<circle cx="81" cy="31" r="1" fill="#63D349"/>
<circle cx="91" cy="31" r="1" fill="#63D349"/>
<circle cx="91" cy="31" r="1" fill="#63D349"/>
<circle cx="101" cy="31" r="1" fill="#63D349"/>
<circle cx="101" cy="31" r="1" fill="#63D349"/>
<circle cx="111" cy="31" r="1" fill="#63D349"/>
<circle cx="111" cy="31" r="1" fill="#63D349"/>
<circle cx="1" cy="41" r="1" fill="#63D349"/>
<circle cx="1" cy="41" r="1" fill="#63D349"/>
<circle cx="11" cy="41" r="1" fill="#63D349"/>
<circle cx="11" cy="41" r="1" fill="#63D349"/>
<circle cx="21" cy="41" r="1" fill="#63D349"/>
<circle cx="21" cy="41" r="1" fill="#63D349"/>
<circle cx="31" cy="41" r="1" fill="#63D349"/>
<circle cx="31" cy="41" r="1" fill="#63D349"/>
<circle cx="41" cy="41" r="1" fill="#63D349"/>
<circle cx="41" cy="41" r="1" fill="#63D349"/>
<circle cx="51" cy="41" r="1" fill="#63D349"/>
<circle cx="51" cy="41" r="1" fill="#63D349"/>
<circle cx="61" cy="41" r="1" fill="#63D349"/>
<circle cx="61" cy="41" r="1" fill="#63D349"/>
<circle cx="71" cy="41" r="1" fill="#63D349"/>
<circle cx="71" cy="41" r="1" fill="#63D349"/>
<circle cx="81" cy="41" r="1" fill="#63D349"/>
<circle cx="81" cy="41" r="1" fill="#63D349"/>
<circle cx="91" cy="41" r="1" fill="#63D349"/>
<circle cx="91" cy="41" r="1" fill="#63D349"/>
<circle cx="101" cy="41" r="1" fill="#63D349"/>
<circle cx="101" cy="41" r="1" fill="#63D349"/>
<circle cx="111" cy="41" r="1" fill="#63D349"/>
<circle cx="111" cy="41" r="1" fill="#63D349"/>
</svg>