<svg xmlns="http://www.w3.org/2000/svg" width="1007" height="318" fill="none"><path stroke="url(#a)" stroke-dasharray="2 2" d="M587 159h-12.036c-40.956 0-77.087 26.804-88.964 66-11.877 39.196-48.008 66-88.964 66H5"/><path stroke="url(#b)" stroke-dasharray="2 2" d="M587 159h-12.036c-40.956 0-77.087-26.804-88.964-66-11.877-39.196-47.917-66-88.873-66H14"/><path stroke="url(#c)" stroke-dasharray="2 2" d="M587 159h-75.176a40.988 40.988 0 0 0-36.324 22 40.988 40.988 0 0 1-36.324 22H0"/><path stroke="url(#d)" stroke-dasharray="2 2" d="M788 159H511.824a40.988 40.988 0 0 1-36.324-22 40.988 40.988 0 0 0-36.324-22H12"/><defs><linearGradient id="a" x1="5" x2="587" y1="225" y2="225" gradientUnits="userSpaceOnUse"><stop stop-color="#7CACD3" stop-opacity="0"/><stop offset=".5" stop-color="#40596D"/><stop offset="1" stop-color="#9AEA63"/></linearGradient><linearGradient id="b" x1="14" x2="587" y1="93" y2="93" gradientUnits="userSpaceOnUse"><stop stop-color="#7CACD3" stop-opacity="0"/><stop offset=".5" stop-color="#40596D"/><stop offset="1" stop-color="#9AEA63"/></linearGradient><linearGradient id="c" x1="0" x2="587" y1="181" y2="181" gradientUnits="userSpaceOnUse"><stop stop-color="#7CACD3" stop-opacity="0"/><stop offset=".5" stop-color="#40596D"/><stop offset="1" stop-color="#9AEA63"/></linearGradient><linearGradient id="d" x1="34" x2="496" y1="115" y2="150" gradientUnits="userSpaceOnUse"><stop stop-color="#7CACD3" stop-opacity="0"/><stop offset=".5" stop-color="#40596D"/><stop offset="1" stop-color="#9AEA63"/></linearGradient></defs></svg>